<svg id="svg" version="1.1" width="884" height="500" xmlns="http://www.w3.org/2000/svg" xmlns:xlink="http://www.w3.org/1999/xlink" style="display: block;"><g id="svgg"><path id="path0" d="M129.333 123.416 C 141.111 123.483,160.251 123.483,171.867 123.416 C 183.483 123.349,173.846 123.294,150.452 123.294 C 127.059 123.294,117.555 123.349,129.333 123.416 " stroke="none" fill="#ffffff" fill-rule="evenodd"></path><path id="path1" d="M190.045 0.613 C 190.045 0.951,189.383 1.415,188.575 1.646 C 187.442 1.969,187.071 2.347,186.961 3.295 C 186.844 4.298,186.590 4.525,185.581 4.525 C 184.901 4.525,184.100 4.769,183.801 5.068 C 183.502 5.367,183.257 5.417,183.255 5.181 C 183.253 4.945,182.850 5.362,182.359 6.109 C 181.867 6.855,181.003 7.576,180.438 7.711 C 179.874 7.846,179.146 8.508,178.821 9.182 C 178.497 9.856,177.876 10.407,177.441 10.407 C 176.421 10.407,175.566 11.274,175.566 12.308 C 175.566 12.882,175.221 13.122,174.395 13.122 C 173.504 13.122,173.099 13.454,172.699 14.513 C 172.337 15.475,171.790 15.981,170.929 16.154 C 169.916 16.356,169.683 16.646,169.683 17.704 C 169.683 18.738,169.482 19.005,168.697 19.005 C 166.940 19.005,164.706 20.049,164.706 20.870 C 164.706 21.355,164.124 21.841,163.166 22.157 C 162.131 22.499,161.535 23.030,161.347 23.776 C 161.142 24.596,160.763 24.887,159.904 24.887 C 158.836 24.887,158.119 25.866,158.339 27.023 C 158.376 27.217,157.737 27.477,156.918 27.602 C 155.720 27.784,155.403 28.060,155.292 29.014 C 155.189 29.908,154.799 30.302,153.709 30.615 C 152.913 30.843,152.237 31.276,152.206 31.578 C 152.175 31.880,152.124 32.432,152.093 32.805 C 152.056 33.245,151.559 33.484,150.679 33.484 C 149.932 33.484,149.321 33.684,149.321 33.928 C 149.321 34.172,148.812 34.500,148.190 34.656 C 147.568 34.812,147.059 35.207,147.059 35.534 C 147.059 35.861,146.346 36.364,145.475 36.652 C 144.245 37.058,143.891 37.419,143.891 38.270 C 143.891 39.189,143.669 39.367,142.523 39.367 C 141.364 39.367,141.112 39.575,140.882 40.724 C 140.674 41.768,140.367 42.081,139.552 42.081 C 138.956 42.081,138.282 42.477,138.009 42.986 C 137.743 43.484,137.659 43.891,137.822 43.891 C 137.986 43.891,137.866 44.197,137.557 44.570 C 137.247 44.943,136.509 45.249,135.917 45.249 C 135.035 45.249,134.842 45.482,134.842 46.547 C 134.842 47.717,134.665 47.868,133.044 48.086 C 131.273 48.323,129.864 49.253,129.864 50.185 C 129.864 50.447,129.306 50.802,128.624 50.973 C 127.449 51.268,126.193 52.172,126.228 52.699 C 126.291 53.646,126.146 53.846,125.395 53.846 C 124.481 53.846,123.695 54.575,123.453 55.647 C 123.371 56.014,122.692 56.523,121.946 56.777 C 120.945 57.118,120.551 57.567,120.445 58.484 C 120.325 59.526,120.086 59.729,118.974 59.729 C 117.712 59.729,117.324 60.396,117.593 62.104 C 117.623 62.291,116.934 62.443,116.063 62.443 C 115.192 62.443,114.480 62.659,114.480 62.923 C 114.480 63.186,114.313 63.299,114.110 63.173 C 113.907 63.048,113.386 63.545,112.953 64.278 C 112.454 65.123,111.795 65.611,111.151 65.611 C 109.926 65.611,109.050 66.404,109.050 67.511 C 109.050 68.060,108.710 68.326,108.009 68.326 C 106.775 68.326,105.882 69.108,105.882 70.190 C 105.882 70.687,105.392 71.077,104.525 71.267 C 103.403 71.513,103.167 71.789,103.167 72.858 C 103.167 73.986,102.980 74.169,101.697 74.293 C 100.471 74.411,100.202 74.642,100.083 75.679 C 99.966 76.698,99.716 76.923,98.703 76.923 C 98.023 76.923,97.212 77.178,96.900 77.489 C 96.589 77.800,96.090 78.054,95.792 78.054 C 95.493 78.054,95.246 78.258,95.242 78.507 C 95.228 79.435,94.484 80.090,93.443 80.090 C 92.500 80.090,91.486 81.493,91.807 82.353 C 91.853 82.477,91.221 82.681,90.402 82.805 C 89.205 82.988,88.887 83.263,88.776 84.218 C 88.673 85.112,88.284 85.505,87.193 85.816 C 86.095 86.128,85.713 86.518,85.606 87.430 C 85.498 88.355,85.184 88.665,84.249 88.773 C 83.300 88.883,83.000 89.189,82.888 90.158 C 82.771 91.178,82.522 91.403,81.506 91.403 C 80.232 91.403,77.172 93.311,77.661 93.800 C 77.812 93.951,77.351 94.213,76.637 94.384 C 74.925 94.794,74.208 95.399,74.208 96.435 C 74.208 97.045,73.881 97.285,73.053 97.285 C 72.183 97.285,71.785 97.612,71.437 98.610 C 71.144 99.450,70.490 100.103,69.650 100.396 C 68.653 100.744,68.326 101.143,68.326 102.013 C 68.326 102.996,68.123 103.167,66.957 103.167 C 65.798 103.167,65.547 103.376,65.317 104.525 C 65.109 105.562,64.799 105.882,64.003 105.882 C 63.429 105.882,62.218 106.583,61.310 107.439 C 60.402 108.295,59.218 109.059,58.680 109.136 C 58.141 109.213,57.433 109.836,57.106 110.520 C 56.779 111.205,56.156 111.765,55.722 111.765 C 54.715 111.765,53.846 112.628,53.846 113.629 C 53.846 114.129,53.353 114.516,52.469 114.710 C 51.422 114.940,51.031 115.322,50.834 116.305 C 50.639 117.282,50.285 117.631,49.383 117.735 C 48.460 117.842,48.158 118.155,48.047 119.118 C 47.937 120.076,47.663 120.362,46.854 120.362 C 45.711 120.362,43.670 121.279,43.548 121.849 C 43.397 122.548,42.171 123.490,41.044 123.773 C 40.361 123.944,39.792 124.482,39.636 125.102 C 39.480 125.724,38.910 126.261,38.223 126.433 C 37.574 126.596,36.885 127.214,36.643 127.851 C 36.362 128.591,35.744 129.073,34.849 129.252 C 33.719 129.478,33.484 129.744,33.484 130.797 C 33.484 131.902,33.290 132.088,32.014 132.211 C 31.205 132.289,30.518 132.607,30.486 132.919 C 30.455 133.230,30.404 133.790,30.373 134.163 C 30.342 134.536,29.907 134.842,29.406 134.842 C 27.920 134.842,25.339 136.544,25.339 137.524 C 25.339 137.961,24.366 138.223,23.381 138.051 C 23.176 138.015,22.777 138.595,22.496 139.339 C 22.155 140.244,21.578 140.783,20.755 140.963 C 19.925 141.146,19.375 141.665,19.062 142.562 C 18.721 143.540,18.309 143.891,17.501 143.891 C 16.649 143.891,16.343 144.188,16.138 145.217 C 15.931 146.251,15.595 146.575,14.610 146.688 C 13.614 146.802,13.318 147.095,13.205 148.077 C 13.093 149.054,12.826 149.321,11.961 149.321 C 11.355 149.321,10.445 149.736,9.938 150.243 C 9.431 150.750,8.821 151.043,8.581 150.895 C 8.341 150.747,8.145 151.035,8.145 151.537 C 8.145 152.217,7.750 152.522,6.587 152.740 C 5.463 152.951,4.990 153.300,4.890 153.990 C 4.797 154.627,4.260 155.087,3.281 155.367 C 1.970 155.741,1.549 156.368,1.769 157.618 C 1.806 157.826,1.423 158.105,0.918 158.237 C -0.267 158.546,-0.525 166.516,0.649 166.516 C 1.992 166.516,3.505 165.647,3.742 164.741 C 3.977 163.842,4.284 163.801,10.832 163.801 C 17.926 163.801,20.517 163.292,21.095 161.785 C 21.310 161.227,22.243 161.075,25.727 161.032 C 31.775 160.958,32.771 160.700,32.949 159.161 C 33.069 158.118,33.307 157.919,34.431 157.919 C 35.550 157.919,35.813 157.701,36.036 156.586 C 36.239 155.568,36.584 155.221,37.495 155.116 C 38.417 155.009,38.720 154.695,38.831 153.733 C 38.938 152.802,39.223 152.487,39.962 152.482 C 41.395 152.472,42.216 151.816,42.304 150.609 C 42.347 150.027,42.671 149.534,43.024 149.512 C 45.161 149.381,46.700 148.642,47.316 147.451 C 47.783 146.548,48.331 146.154,49.118 146.154 C 50.013 146.154,50.306 145.870,50.520 144.796 C 50.734 143.729,51.030 143.439,51.906 143.439 C 52.721 143.439,53.153 143.085,53.517 142.121 C 53.857 141.221,54.418 140.723,55.288 140.549 C 56.347 140.337,56.561 140.064,56.561 138.925 C 56.561 137.759,56.732 137.557,57.717 137.557 C 58.380 137.557,59.489 136.976,60.319 136.194 C 61.114 135.445,62.426 134.589,63.235 134.293 C 64.138 133.963,64.706 133.445,64.706 132.954 C 64.706 132.431,65.213 132.021,66.162 131.775 C 67.173 131.513,67.698 131.060,67.879 130.294 C 68.023 129.683,68.534 129.117,69.024 129.026 C 70.270 128.795,71.041 128.078,71.041 127.150 C 71.041 126.631,71.510 126.264,72.398 126.086 C 73.547 125.856,73.756 125.605,73.756 124.446 C 73.756 123.177,73.875 123.077,75.374 123.077 C 76.554 123.077,77.346 122.724,78.296 121.773 C 79.013 121.056,80.114 120.341,80.743 120.183 C 81.434 120.009,81.993 119.473,82.155 118.827 C 82.332 118.122,82.912 117.619,83.859 117.349 C 84.945 117.039,85.328 116.647,85.435 115.737 C 85.543 114.812,85.856 114.502,86.792 114.394 C 87.740 114.284,88.041 113.979,88.152 113.009 C 88.259 112.078,88.544 111.763,89.283 111.758 C 90.508 111.749,91.154 111.325,91.542 110.274 C 91.707 109.827,92.609 109.160,93.546 108.792 C 95.965 107.842,96.623 107.397,96.486 106.808 C 96.420 106.525,96.986 106.076,97.744 105.812 C 98.502 105.548,99.426 104.744,99.797 104.027 C 100.169 103.309,100.621 102.744,100.802 102.772 C 102.223 102.989,102.715 102.625,102.715 101.357 C 102.715 100.148,102.865 100.000,104.084 100.000 C 105.243 100.000,105.494 99.792,105.724 98.643 C 105.928 97.623,106.246 97.285,107.001 97.285 C 107.554 97.285,108.740 96.572,109.637 95.701 C 110.534 94.830,111.660 94.118,112.139 94.118 C 113.074 94.118,113.860 93.397,114.103 92.316 C 114.186 91.949,114.864 91.441,115.611 91.187 C 116.492 90.886,117.019 90.367,117.113 89.706 C 117.192 89.146,117.447 88.662,117.679 88.631 C 117.910 88.600,118.303 88.524,118.552 88.462 C 118.801 88.399,119.192 88.323,119.421 88.292 C 119.650 88.261,119.969 87.637,120.130 86.905 C 120.353 85.890,120.710 85.541,121.636 85.434 C 122.582 85.325,122.882 85.019,122.994 84.050 C 123.109 83.053,123.368 82.805,124.298 82.805 C 125.349 82.805,128.507 81.230,128.507 80.706 C 128.507 80.587,128.252 80.642,127.941 80.829 C 127.529 81.077,127.537 80.970,127.972 80.433 C 128.301 80.028,129.166 79.565,129.896 79.405 C 130.794 79.208,131.311 78.759,131.497 78.018 C 131.649 77.416,131.903 76.907,132.063 76.888 C 134.319 76.619,134.554 76.383,134.807 74.125 C 134.826 73.955,135.402 73.751,136.086 73.673 C 137.063 73.560,137.361 73.262,137.473 72.285 C 137.590 71.269,137.842 71.041,138.843 71.041 C 139.625 71.041,140.480 70.574,141.201 69.752 C 141.823 69.043,143.078 68.217,143.989 67.916 C 145.111 67.546,145.691 67.058,145.786 66.404 C 145.882 65.747,146.397 65.317,147.392 65.061 C 148.398 64.801,148.943 64.341,149.132 63.590 C 149.316 62.854,149.835 62.402,150.721 62.208 C 151.807 61.969,152.036 61.689,152.036 60.598 C 152.036 59.428,152.194 59.276,153.405 59.276 C 154.564 59.276,154.815 59.068,155.045 57.919 C 155.271 56.788,155.534 56.561,156.618 56.561 C 157.494 56.561,157.919 56.331,157.919 55.856 C 157.919 55.468,158.108 55.267,158.340 55.411 C 158.572 55.554,159.033 55.283,159.366 54.809 C 159.698 54.335,160.730 53.629,161.659 53.241 C 162.831 52.751,163.348 52.251,163.348 51.607 C 163.348 50.940,163.641 50.679,164.389 50.679 C 165.637 50.679,166.516 49.893,166.516 48.778 C 166.516 48.330,166.719 47.938,166.968 47.907 C 167.217 47.876,167.624 47.800,167.873 47.738 C 168.122 47.675,168.504 47.599,168.722 47.568 C 168.939 47.537,169.240 46.900,169.389 46.154 C 169.619 45.005,169.871 44.796,171.029 44.796 C 172.249 44.796,172.398 44.648,172.398 43.439 C 172.398 42.189,172.524 42.081,173.982 42.081 C 174.853 42.081,175.566 41.878,175.566 41.629 C 175.566 41.380,175.890 41.176,176.287 41.176 C 176.683 41.176,177.113 40.776,177.241 40.286 C 177.432 39.554,178.499 38.850,179.638 38.703 C 180.352 38.611,180.995 37.841,180.995 37.077 C 180.995 36.437,181.309 36.199,182.150 36.199 C 183.016 36.199,183.419 35.873,183.760 34.893 C 184.082 33.970,184.606 33.509,185.547 33.321 C 186.668 33.096,186.878 32.838,186.878 31.686 C 186.878 30.463,187.025 30.317,188.250 30.317 C 189.225 30.317,189.722 30.045,189.969 29.378 C 190.160 28.862,190.510 28.404,190.746 28.360 C 190.983 28.316,191.126 28.128,191.063 27.941 C 191.001 27.755,191.357 27.602,191.855 27.602 C 192.754 27.602,192.760 27.903,192.760 75.563 L 192.760 123.525 148.077 123.640 L 103.394 123.756 103.250 125.000 C 103.137 125.985,102.873 126.244,101.983 126.244 C 101.145 126.244,100.740 126.584,100.395 127.573 C 100.070 128.505,99.535 128.989,98.608 129.193 C 97.514 129.433,97.285 129.712,97.285 130.805 C 97.285 131.923,97.106 132.127,96.122 132.127 C 94.926 132.127,93.489 133.157,93.988 133.657 C 94.142 133.811,93.917 133.937,93.488 133.937 C 93.058 133.937,92.833 134.140,92.986 134.389 C 93.140 134.638,92.859 134.842,92.361 134.842 C 91.863 134.842,91.330 135.045,91.176 135.294 C 91.023 135.543,90.490 135.747,89.992 135.747 C 89.494 135.747,89.204 135.936,89.347 136.168 C 89.490 136.400,89.397 136.719,89.140 136.878 C 88.883 137.037,88.790 137.356,88.933 137.588 C 89.077 137.819,88.876 138.035,88.488 138.066 C 88.100 138.097,87.572 138.148,87.314 138.179 C 85.829 138.358,85.453 142.224,86.848 142.971 C 87.437 143.286,104.905 143.439,140.242 143.439 L 192.760 143.439 192.760 184.842 L 192.760 226.244 204.299 226.244 L 215.837 226.244 215.837 113.122 L 215.837 0.000 202.941 0.000 C 192.392 0.000,190.045 0.112,190.045 0.613 " stroke="none" fill="#5fc8d8" fill-rule="evenodd"></path><path id="path2" d="M185.294 3.167 C 185.140 3.416,185.140 3.824,185.294 4.072 C 185.722 4.764,186.727 4.611,186.727 3.853 C 186.727 3.309,186.596 3.288,186.039 3.740 C 185.464 4.207,185.400 4.169,185.648 3.507 C 185.969 2.649,185.747 2.435,185.294 3.167 M168.452 17.250 C 168.172 17.529,168.052 18.038,168.183 18.381 C 168.503 19.213,169.683 19.181,169.683 18.340 C 169.683 17.914,169.399 17.765,168.891 17.924 C 168.215 18.137,168.228 18.069,168.978 17.458 C 169.461 17.064,169.654 16.742,169.408 16.742 C 169.161 16.742,168.731 16.971,168.452 17.250 M191.278 28.382 C 191.480 28.908,191.367 29.042,190.878 28.855 C 190.497 28.708,190.196 28.840,190.196 29.153 C 190.196 29.980,191.204 29.834,191.772 28.924 C 192.148 28.322,192.115 28.077,191.631 27.891 C 191.191 27.723,191.083 27.873,191.278 28.382 M150.862 32.204 C 150.388 32.745,150.255 33.038,150.566 32.857 C 150.877 32.675,151.131 32.741,151.131 33.005 C 151.131 33.269,151.333 33.484,151.579 33.484 C 151.825 33.484,151.984 32.975,151.932 32.353 C 151.820 30.993,151.913 31.006,150.862 32.204 M147.835 34.253 C 148.021 34.738,148.197 34.821,148.312 34.477 C 148.412 34.177,148.711 34.066,148.977 34.230 C 149.263 34.407,149.329 34.315,149.138 34.007 C 148.615 33.159,147.496 33.371,147.835 34.253 M178.394 39.014 C 177.834 39.284,177.376 39.658,177.376 39.846 C 177.376 40.033,177.883 39.951,178.503 39.663 C 179.123 39.376,179.633 38.988,179.634 38.801 C 179.639 38.400,179.683 38.392,178.394 39.014 M172.398 42.986 C 172.398 43.484,172.696 43.891,173.061 43.891 C 173.426 43.891,173.942 43.484,174.208 42.986 C 174.633 42.192,174.552 42.081,173.545 42.081 C 172.700 42.081,172.398 42.319,172.398 42.986 M134.045 46.003 C 132.854 46.482,132.568 47.783,133.652 47.783 C 134.403 47.783,134.661 47.517,134.661 46.742 C 134.661 46.170,134.650 45.717,134.638 45.737 C 134.626 45.757,134.359 45.876,134.045 46.003 M130.317 48.443 C 130.317 48.707,130.113 48.796,129.864 48.643 C 129.615 48.489,129.412 48.579,129.412 48.842 C 129.412 49.492,129.918 49.423,130.969 48.628 C 131.735 48.049,131.749 47.964,131.082 47.964 C 130.661 47.964,130.317 48.179,130.317 48.443 M126.762 51.082 C 126.334 51.353,126.299 51.564,126.649 51.780 C 126.924 51.950,127.149 51.889,127.149 51.644 C 127.149 51.398,127.506 51.104,127.941 50.991 C 128.502 50.844,128.535 50.770,128.054 50.738 C 127.681 50.713,127.099 50.868,126.762 51.082 M159.354 54.795 C 159.028 55.317,158.877 55.860,159.018 56.002 C 159.160 56.144,159.276 56.022,159.276 55.732 C 159.276 55.441,159.503 55.255,159.782 55.317 C 160.060 55.379,160.347 55.074,160.420 54.638 C 160.601 53.563,160.075 53.640,159.354 54.795 M116.403 60.790 C 115.118 62.060,115.119 62.443,116.408 62.443 C 117.230 62.443,117.441 62.178,117.486 61.086 C 117.516 60.339,117.514 59.741,117.481 59.756 C 117.448 59.771,116.963 60.236,116.403 60.790 M113.122 62.923 C 113.122 63.186,112.887 63.257,112.600 63.079 C 112.291 62.888,112.200 62.954,112.376 63.240 C 112.541 63.506,112.420 63.827,112.107 63.953 C 111.655 64.135,111.655 64.189,112.104 64.218 C 112.415 64.237,113.077 63.846,113.575 63.348 C 114.279 62.645,114.329 62.443,113.801 62.443 C 113.428 62.443,113.122 62.659,113.122 62.923 M111.312 65.035 C 109.771 65.315,108.586 66.459,108.650 67.604 C 108.700 68.516,108.711 68.518,108.925 67.647 C 109.266 66.258,109.962 65.611,111.115 65.611 C 111.692 65.611,112.290 65.407,112.443 65.158 C 112.597 64.910,112.660 64.734,112.583 64.768 C 112.506 64.801,111.934 64.922,111.312 65.035 M141.312 69.886 C 141.288 70.397,141.367 70.559,141.487 70.246 C 141.608 69.933,141.924 69.812,142.190 69.977 C 142.462 70.145,142.543 70.064,142.375 69.792 C 142.210 69.526,142.332 69.210,142.644 69.089 C 142.957 68.969,142.795 68.890,142.284 68.914 C 141.679 68.942,141.340 69.281,141.312 69.886 M98.935 75.318 C 97.461 76.684,97.443 76.923,98.817 76.923 C 99.671 76.923,99.939 76.639,100.097 75.566 C 100.336 73.935,100.410 73.951,98.935 75.318 M95.928 77.657 C 95.928 78.258,96.050 78.289,96.606 77.828 C 96.980 77.518,97.285 77.188,97.285 77.094 C 97.285 77.000,96.980 76.923,96.606 76.923 C 96.233 76.923,95.928 77.253,95.928 77.657 M123.077 83.710 C 123.077 84.208,123.249 84.615,123.459 84.615 C 123.670 84.615,124.210 84.208,124.661 83.710 C 125.460 82.827,125.451 82.805,124.278 82.805 C 123.379 82.805,123.077 83.033,123.077 83.710 M81.787 89.645 C 80.257 90.787,80.199 91.403,81.623 91.403 C 82.477 91.403,82.744 91.119,82.902 90.045 C 83.012 89.299,83.086 88.694,83.066 88.702 C 83.047 88.710,82.472 89.134,81.787 89.645 M109.515 95.910 C 109.149 96.141,108.983 96.465,109.147 96.628 C 109.310 96.791,109.909 96.599,110.479 96.200 C 111.594 95.419,110.712 95.153,109.515 95.910 M64.367 104.260 C 63.125 105.449,63.081 105.882,64.201 105.882 C 64.771 105.882,65.132 105.470,65.292 104.638 C 65.591 103.082,65.595 103.083,64.367 104.260 M60.747 106.349 C 59.701 106.769,59.341 107.692,60.223 107.692 C 60.495 107.692,61.235 107.285,61.867 106.787 C 63.060 105.849,62.517 105.637,60.747 106.349 M93.213 109.001 C 93.213 109.306,93.032 109.444,92.811 109.308 C 92.145 108.896,91.405 110.133,91.874 110.875 C 92.185 111.366,92.296 111.385,92.301 110.946 C 92.305 110.601,92.544 110.490,92.873 110.679 C 93.184 110.858,93.288 110.838,93.103 110.635 C 92.919 110.431,92.999 109.986,93.281 109.646 C 93.563 109.306,93.663 108.897,93.503 108.737 C 93.343 108.577,93.213 108.696,93.213 109.001 M47.059 119.683 C 46.597 120.239,46.628 120.362,47.230 120.362 C 47.633 120.362,47.964 120.057,47.964 119.683 C 47.964 119.310,47.887 119.005,47.793 119.005 C 47.699 119.005,47.369 119.310,47.059 119.683 M78.359 121.779 C 77.780 122.493,77.475 123.071,77.681 123.063 C 78.101 123.047,79.814 120.828,79.569 120.617 C 79.483 120.542,78.938 121.065,78.359 121.779 M42.249 122.389 C 41.875 123.363,42.178 123.579,42.869 122.829 C 43.225 122.442,43.265 122.118,42.979 121.941 C 42.731 121.788,42.402 121.989,42.249 122.389 M73.756 124.208 C 73.756 125.549,74.242 125.647,75.269 124.512 C 76.293 123.381,76.212 123.077,74.887 123.077 C 73.982 123.077,73.756 123.303,73.756 124.208 M36.355 126.943 C 35.963 127.965,36.315 128.019,37.217 127.074 C 37.887 126.372,37.902 126.244,37.316 126.244 C 36.935 126.244,36.503 126.559,36.355 126.943 M93.665 132.502 C 93.665 132.738,93.313 132.903,92.882 132.868 C 92.368 132.827,92.078 133.155,92.039 133.824 C 92.004 134.411,92.240 134.842,92.596 134.842 C 92.935 134.842,93.162 134.587,93.100 134.276 C 93.037 133.965,93.256 133.766,93.586 133.835 C 93.915 133.903,94.067 133.768,93.922 133.534 C 93.778 133.300,93.905 133.027,94.206 132.927 C 94.630 132.785,94.631 132.670,94.208 132.409 C 93.910 132.224,93.665 132.266,93.665 132.502 M26.247 135.246 C 25.626 135.419,25.044 135.944,24.954 136.413 C 24.800 137.212,24.838 137.218,25.549 136.506 C 25.967 136.089,26.588 135.747,26.929 135.747 C 27.270 135.747,27.674 135.543,27.828 135.294 C 28.138 134.792,27.903 134.785,26.247 135.246 M60.931 135.667 C 60.205 136.470,60.328 137.104,61.210 137.104 C 61.444 137.104,61.523 136.812,61.386 136.455 C 61.249 136.097,61.380 135.718,61.677 135.612 C 61.974 135.505,62.097 135.287,61.950 135.127 C 61.804 134.967,61.345 135.210,60.931 135.667 M85.822 138.311 C 85.390 138.743,85.450 139.367,85.924 139.367 C 86.147 139.367,86.446 139.061,86.589 138.688 C 86.854 137.998,86.372 137.761,85.822 138.311 M12.217 148.643 C 11.756 149.198,11.787 149.321,12.388 149.321 C 12.792 149.321,13.122 149.016,13.122 148.643 C 13.122 148.269,13.045 147.964,12.951 147.964 C 12.857 147.964,12.527 148.269,12.217 148.643 M42.383 149.623 C 42.222 149.785,42.316 150.190,42.593 150.524 C 42.964 150.971,42.963 151.131,42.589 151.131 C 42.310 151.131,42.081 151.370,42.081 151.663 C 42.081 151.955,42.590 151.716,43.213 151.131 C 43.835 150.547,44.328 149.849,44.308 149.582 C 44.289 149.314,44.167 149.358,44.038 149.680 C 43.873 150.091,43.637 150.126,43.240 149.797 C 42.930 149.539,42.545 149.461,42.383 149.623 " stroke="none" fill="#00ffff" fill-rule="evenodd"></path><path id="path3" d="M224.887 113.122 L 224.887 226.244 236.425 226.244 L 247.964 226.244 247.964 184.842 L 247.964 143.439 291.528 143.439 C 337.775 143.439,337.104 143.468,337.104 141.435 C 337.104 140.992,338.372 140.788,342.071 140.636 C 347.145 140.427,348.869 139.800,348.869 138.165 C 348.869 137.719,349.640 137.557,351.762 137.557 C 354.352 137.557,354.808 137.414,356.109 136.199 C 357.121 135.254,358.019 134.842,359.068 134.842 C 361.199 134.842,362.944 134.078,363.219 133.026 C 363.366 132.463,363.837 132.127,364.477 132.127 C 366.125 132.127,368.858 130.788,369.100 129.863 C 369.248 129.299,369.806 128.963,370.748 128.871 C 371.906 128.759,372.198 128.511,372.310 127.543 C 372.427 126.528,372.727 126.307,374.334 126.050 C 376.317 125.733,377.828 124.711,377.828 123.686 C 377.828 123.351,378.296 123.077,378.869 123.077 C 380.095 123.077,380.995 122.296,380.995 121.233 C 380.995 120.753,381.493 120.376,382.353 120.204 C 383.436 119.987,383.710 119.699,383.710 118.775 C 383.710 118.069,384.018 117.523,384.502 117.374 C 386.080 116.886,386.654 116.405,386.796 115.452 C 386.883 114.869,387.378 114.371,388.036 114.206 C 388.837 114.005,389.260 113.452,389.612 112.147 C 390.141 110.180,391.287 108.597,392.182 108.597 C 392.510 108.597,392.761 108.060,392.763 107.353 C 392.765 106.451,393.132 105.900,394.096 105.352 C 395.269 104.684,395.442 104.312,395.563 102.185 C 395.683 100.089,395.833 99.755,396.706 99.631 C 397.922 99.458,398.636 97.297,398.640 93.778 C 398.642 91.969,398.804 91.403,399.321 91.403 C 399.915 91.403,400.000 88.688,400.000 69.683 C 400.000 50.679,399.915 47.964,399.321 47.964 C 398.832 47.964,398.629 47.427,398.594 46.041 C 398.568 44.983,398.501 43.812,398.446 43.439 C 398.390 43.066,398.310 42.190,398.267 41.492 C 398.208 40.523,397.870 40.113,396.833 39.751 C 395.546 39.303,395.041 37.795,395.437 35.586 C 395.560 34.904,394.487 33.937,393.610 33.937 C 392.992 33.937,392.760 33.609,392.760 32.733 C 392.760 31.976,392.273 31.094,391.450 30.357 C 390.729 29.713,389.912 28.342,389.635 27.310 C 389.261 25.917,388.849 25.364,388.036 25.160 C 387.378 24.995,386.883 24.498,386.796 23.914 C 386.654 22.961,386.080 22.480,384.502 21.993 C 384.018 21.843,383.710 21.298,383.710 20.591 C 383.710 19.668,383.436 19.380,382.353 19.163 C 381.606 19.014,380.995 18.643,380.995 18.339 C 380.995 17.582,379.499 16.290,378.623 16.290 C 378.229 16.290,377.172 15.577,376.275 14.706 C 375.341 13.799,374.185 13.122,373.570 13.122 C 372.804 13.122,372.415 12.800,372.214 11.998 C 371.919 10.821,370.939 10.390,368.258 10.257 C 366.978 10.193,366.720 9.994,366.603 8.983 C 366.451 7.664,365.559 7.256,362.807 7.246 C 361.432 7.241,361.030 7.019,360.541 5.995 C 359.999 4.861,359.697 4.739,357.127 4.617 C 354.878 4.509,354.212 4.303,353.835 3.598 C 353.575 3.113,353.081 2.715,352.737 2.715 C 352.393 2.715,352.027 2.460,351.923 2.149 C 351.795 1.764,350.341 1.534,347.361 1.427 C 343.982 1.306,342.986 1.126,342.986 0.635 C 342.986 0.093,334.319 0.000,283.937 0.000 L 224.887 0.000 224.887 113.122 M332.579 19.865 C 332.579 21.139,334.795 21.719,339.660 21.719 C 343.433 21.719,343.891 21.808,343.891 22.534 C 343.891 23.929,344.882 24.434,347.616 24.434 C 349.528 24.434,350.325 24.619,350.512 25.104 C 350.859 26.009,353.505 27.602,354.661 27.602 C 355.206 27.602,355.718 27.989,355.891 28.533 C 356.224 29.584,357.801 30.317,359.728 30.317 C 360.803 30.317,361.050 30.528,361.169 31.547 C 361.279 32.494,361.650 32.873,362.783 33.196 C 363.681 33.452,364.253 33.907,364.253 34.364 C 364.253 35.348,365.135 36.199,366.154 36.199 C 366.637 36.199,366.968 36.531,366.968 37.014 C 366.968 38.021,367.817 38.914,368.775 38.914 C 369.198 38.914,369.675 39.522,369.929 40.385 C 370.227 41.397,370.679 41.900,371.380 42.000 C 372.121 42.105,372.398 42.448,372.398 43.259 C 372.398 45.201,373.615 47.511,374.638 47.511 C 375.448 47.511,375.566 47.794,375.566 49.741 C 375.566 52.018,376.345 53.394,377.634 53.394 C 378.138 53.394,378.281 54.165,378.284 56.900 C 378.290 61.881,379.083 68.172,379.907 69.765 C 380.543 70.995,380.542 71.197,379.894 71.913 C 379.055 72.840,378.314 77.937,378.295 82.919 C 378.283 85.701,378.143 86.425,377.613 86.425 C 376.695 86.425,375.566 88.766,375.566 90.671 C 375.566 91.836,375.335 92.320,374.684 92.527 C 374.199 92.681,373.676 93.203,373.522 93.688 C 373.368 94.173,373.065 94.570,372.849 94.570 C 372.633 94.570,372.392 95.232,372.314 96.041 C 372.208 97.142,371.929 97.546,371.205 97.649 C 370.546 97.743,370.154 98.212,369.971 99.125 C 369.805 99.959,369.274 100.658,368.562 100.983 C 367.935 101.269,367.421 101.882,367.421 102.346 C 367.421 102.838,366.931 103.376,366.246 103.637 C 365.600 103.882,364.968 104.475,364.843 104.954 C 364.718 105.433,364.025 106.031,363.304 106.282 C 362.583 106.534,361.774 107.221,361.505 107.811 C 361.232 108.410,360.384 109.069,359.581 109.305 C 358.645 109.581,358.098 110.058,358.010 110.675 C 357.905 111.409,357.397 111.714,355.747 112.032 C 354.207 112.330,353.497 112.724,353.173 113.462 C 352.867 114.160,352.338 114.480,351.492 114.480 C 349.666 114.480,347.059 115.860,347.059 116.826 C 347.059 117.525,346.668 117.647,344.434 117.647 C 341.750 117.647,340.724 118.155,340.724 119.484 C 340.724 120.127,339.984 120.268,335.622 120.461 C 330.551 120.685,328.473 121.255,327.217 122.769 C 326.748 123.334,321.109 123.437,287.318 123.502 L 247.964 123.578 247.964 71.291 L 247.964 19.005 290.271 19.005 C 331.552 19.005,332.579 19.025,332.579 19.865 " stroke="none" fill="#444445" fill-rule="evenodd"></path><path id="path4" d="M351.244 1.634 C 351.680 1.767,352.036 2.065,352.036 2.296 C 352.036 2.526,352.317 2.715,352.660 2.715 C 353.003 2.715,353.603 3.173,353.993 3.733 L 354.704 4.751 354.727 3.533 C 354.756 2.085,354.601 1.966,352.259 1.642 C 351.265 1.505,350.809 1.501,351.244 1.634 M185.410 2.523 C 185.256 2.677,185.253 3.122,185.402 3.512 C 185.582 3.980,185.494 4.110,185.145 3.894 C 184.854 3.714,184.615 3.782,184.615 4.046 C 184.615 4.656,185.378 4.669,185.751 4.065 C 185.907 3.812,186.207 3.711,186.417 3.841 C 186.627 3.971,186.748 3.730,186.685 3.307 C 186.565 2.487,185.873 2.061,185.410 2.523 M360.475 5.882 C 360.848 6.629,361.325 7.240,361.537 7.240 C 361.748 7.240,361.617 6.629,361.244 5.882 C 360.872 5.136,360.394 4.525,360.183 4.525 C 359.971 4.525,360.103 5.136,360.475 5.882 M366.597 9.163 C 366.718 10.009,367.048 10.194,368.552 10.258 C 369.878 10.315,370.116 10.238,369.441 9.969 C 368.935 9.768,368.248 9.275,367.915 8.874 C 367.053 7.836,366.428 7.972,366.597 9.163 M376.275 14.706 C 377.172 15.577,378.229 16.290,378.623 16.290 C 379.018 16.290,379.713 16.627,380.168 17.038 C 380.938 17.736,380.995 17.735,380.995 17.027 C 380.995 16.546,380.502 16.168,379.651 15.998 C 378.819 15.832,378.193 15.362,378.007 14.765 C 377.637 13.579,377.007 13.138,375.671 13.129 C 374.720 13.123,374.765 13.240,376.275 14.706 M167.835 17.467 C 166.998 18.476,167.956 19.044,168.911 18.105 C 169.596 17.432,169.619 17.267,169.058 17.051 C 168.692 16.911,168.141 17.098,167.835 17.467 M332.281 20.136 C 332.343 21.302,332.544 21.507,333.710 21.592 L 335.068 21.691 333.851 21.224 C 333.182 20.967,332.539 20.312,332.422 19.768 C 332.288 19.146,332.236 19.283,332.281 20.136 M383.247 19.302 C 383.502 19.429,383.710 20.031,383.710 20.640 C 383.710 21.300,384.030 21.847,384.502 21.993 C 384.938 22.128,385.673 22.442,386.135 22.692 C 386.774 23.037,386.929 23.002,386.779 22.546 C 386.671 22.216,386.050 21.882,385.400 21.805 C 384.508 21.699,384.183 21.374,384.077 20.483 C 384.000 19.832,383.677 19.249,383.360 19.186 C 383.042 19.124,382.992 19.176,383.247 19.302 M343.491 22.964 C 343.453 24.040,343.636 24.434,344.173 24.434 C 344.704 24.434,344.780 24.278,344.448 23.869 C 344.195 23.558,343.889 22.896,343.766 22.398 C 343.620 21.804,343.526 21.998,343.491 22.964 M349.328 25.226 C 349.340 26.585,350.010 27.172,351.847 27.434 L 353.620 27.686 352.297 26.769 C 351.570 26.265,350.796 25.533,350.578 25.143 C 350.047 24.194,349.320 24.243,349.328 25.226 M388.339 25.197 C 388.801 25.318,389.330 26.175,389.629 27.284 C 390.057 28.872,392.106 31.579,392.544 31.134 C 393.032 30.637,392.032 28.380,391.181 28.056 C 390.554 27.818,390.067 27.145,389.894 26.280 C 389.676 25.191,389.391 24.898,388.586 24.939 C 387.834 24.978,387.768 25.047,388.339 25.197 M355.310 28.733 C 355.412 29.886,355.635 30.106,356.787 30.193 C 357.796 30.270,357.929 30.206,357.304 29.944 C 356.841 29.750,356.177 29.093,355.826 28.484 L 355.190 27.376 355.310 28.733 M150.242 32.097 C 149.633 33.235,149.652 33.484,150.344 33.484 C 151.016 33.484,152.106 31.895,151.708 31.497 C 151.214 31.003,150.719 31.206,150.242 32.097 M363.946 34.580 C 363.991 35.308,364.333 36.003,364.706 36.125 C 365.239 36.299,365.274 36.209,364.868 35.707 C 364.583 35.356,364.241 34.661,364.108 34.163 C 363.955 33.594,363.895 33.750,363.946 34.580 M393.439 33.812 C 393.937 33.934,394.598 34.241,394.910 34.493 C 395.318 34.825,395.475 34.749,395.475 34.218 C 395.475 33.681,395.081 33.498,394.005 33.537 C 393.039 33.571,392.845 33.666,393.439 33.812 M366.568 36.794 C 366.473 38.293,367.379 39.370,368.681 39.305 C 369.698 39.254,369.740 39.210,368.924 39.051 C 367.793 38.831,367.161 38.171,366.843 36.878 C 366.651 36.096,366.614 36.085,366.568 36.794 M397.059 39.759 C 397.557 39.966,398.101 40.726,398.268 41.448 C 398.554 42.679,398.568 42.662,398.495 41.176 C 398.429 39.841,398.239 39.576,397.285 39.487 C 396.290 39.395,396.263 39.427,397.059 39.759 M372.416 45.799 C 372.397 47.142,373.715 48.164,375.024 47.819 C 375.561 47.677,375.480 47.601,374.752 47.564 C 374.037 47.528,373.512 47.052,373.073 46.041 C 372.434 44.572,372.434 44.571,372.416 45.799 M133.061 46.345 C 132.369 47.179,132.769 47.922,133.825 47.767 C 134.688 47.641,134.921 46.105,134.118 45.837 C 133.844 45.746,133.368 45.975,133.061 46.345 M398.643 46.833 C 398.643 47.536,398.899 47.964,399.321 47.964 C 399.744 47.964,400.000 47.536,400.000 46.833 C 400.000 46.129,399.744 45.701,399.321 45.701 C 398.899 45.701,398.643 46.129,398.643 46.833 M375.566 52.674 C 375.566 53.387,377.637 54.188,378.151 53.674 C 378.305 53.520,378.107 53.394,377.710 53.394 C 377.313 53.394,376.668 53.074,376.277 52.683 C 375.638 52.044,375.566 52.043,375.566 52.674 M378.420 70.136 C 378.423 76.401,378.515 77.782,378.783 75.625 C 378.981 74.040,379.472 72.379,379.876 71.933 C 380.549 71.189,380.550 71.009,379.885 69.723 C 379.487 68.953,378.993 66.848,378.788 65.044 C 378.489 62.411,378.416 63.414,378.420 70.136 M376.131 85.820 C 375.820 85.946,375.574 86.693,375.584 87.481 L 375.602 88.914 376.277 87.670 C 376.648 86.985,377.251 86.425,377.616 86.425 C 377.982 86.425,378.281 86.222,378.281 85.973 C 378.281 85.504,377.119 85.422,376.131 85.820 M373.452 91.754 C 372.734 92.211,372.163 94.570,372.771 94.570 C 373.030 94.570,373.368 94.173,373.522 93.688 C 373.676 93.203,374.199 92.681,374.684 92.527 C 375.169 92.373,375.566 92.057,375.566 91.825 C 375.566 91.322,374.202 91.276,373.452 91.754 M398.060 98.050 C 397.857 99.063,397.472 99.538,396.738 99.678 C 395.821 99.854,395.844 99.884,396.937 99.938 C 398.193 100.001,399.008 98.607,398.538 97.198 C 398.432 96.881,398.217 97.264,398.060 98.050 M369.745 98.529 C 369.796 99.554,369.841 99.599,369.999 98.783 C 370.110 98.212,370.610 97.712,371.182 97.601 C 371.997 97.442,371.952 97.397,370.928 97.347 C 369.843 97.293,369.691 97.445,369.745 98.529 M367.604 100.346 C 367.331 100.529,366.974 101.225,366.811 101.893 C 366.592 102.789,366.187 103.145,365.270 103.251 C 364.302 103.362,363.996 103.663,363.887 104.611 C 363.778 105.551,363.470 105.859,362.529 105.968 C 361.619 106.073,361.276 106.394,361.168 107.240 L 361.024 108.371 361.723 107.405 C 362.108 106.873,362.912 106.315,363.510 106.165 C 364.108 106.015,364.704 105.485,364.834 104.988 C 364.964 104.490,365.600 103.882,366.246 103.637 C 366.977 103.359,367.421 102.844,367.421 102.274 C 367.421 101.770,367.586 101.357,367.787 101.357 C 367.988 101.357,368.548 101.059,369.031 100.693 C 370.020 99.945,368.686 99.621,367.604 100.346 M394.370 105.241 C 393.636 105.777,393.613 105.882,394.231 105.882 C 394.637 105.882,395.103 105.665,395.267 105.400 C 395.747 104.624,395.318 104.548,394.370 105.241 M358.384 109.032 C 357.293 109.722,358.031 109.822,359.729 109.215 C 361.101 108.724,361.161 108.646,360.181 108.630 C 359.559 108.620,358.750 108.801,358.384 109.032 M390.848 109.480 C 390.432 109.966,389.874 111.173,389.607 112.164 C 389.326 113.207,388.793 114.051,388.339 114.169 C 387.749 114.324,387.802 114.388,388.554 114.427 C 389.348 114.469,389.611 114.162,389.844 112.921 C 390.053 111.809,390.406 111.324,391.078 111.225 C 391.665 111.138,392.145 110.616,392.351 109.842 C 392.749 108.346,391.978 108.161,390.848 109.480 M352.477 112.925 C 351.763 114.805,352.369 115.284,353.173 113.476 C 353.419 112.924,354.129 112.334,354.751 112.164 C 355.787 111.881,355.757 111.851,354.401 111.810 C 353.206 111.773,352.833 111.989,352.477 112.925 M347.172 114.779 C 346.861 114.905,346.634 115.652,346.668 116.440 C 346.708 117.376,346.794 117.545,346.916 116.927 C 347.019 116.406,347.755 115.656,348.551 115.259 C 350.016 114.529,348.821 114.114,347.172 114.779 M385.973 116.763 C 385.600 116.964,384.938 117.239,384.502 117.374 C 384.030 117.520,383.710 118.066,383.710 118.726 C 383.710 119.336,383.502 119.938,383.247 120.064 C 382.992 120.191,383.042 120.243,383.360 120.180 C 383.677 120.117,384.001 119.522,384.080 118.857 C 384.190 117.925,384.470 117.647,385.297 117.647 C 385.888 117.647,386.506 117.430,386.670 117.164 C 387.082 116.498,386.782 116.325,385.973 116.763 M339.015 118.351 C 337.554 119.374,337.727 120.362,339.367 120.362 C 340.372 120.362,340.724 120.151,340.724 119.548 C 340.724 119.100,340.968 118.489,341.267 118.190 C 342.103 117.354,340.248 117.487,339.015 118.351 M327.828 120.693 C 326.764 120.959,326.261 121.624,326.251 122.778 C 326.245 123.511,326.410 123.470,327.637 122.438 C 328.402 121.794,329.471 121.173,330.012 121.058 C 330.553 120.944,331.403 120.764,331.900 120.658 C 332.398 120.553,331.889 120.467,330.769 120.467 C 329.649 120.467,328.326 120.569,327.828 120.693 M266.143 123.416 C 276.265 123.484,292.962 123.484,303.247 123.416 C 313.531 123.348,305.249 123.293,284.842 123.293 C 264.434 123.293,256.020 123.348,266.143 123.416 M377.890 123.572 C 377.814 124.462,376.551 125.624,375.339 125.919 C 374.607 126.097,374.655 126.149,375.592 126.192 C 377.278 126.268,378.408 125.284,378.159 123.957 C 378.045 123.348,377.924 123.175,377.890 123.572 M369.102 129.856 C 368.966 130.377,368.231 131.007,367.438 131.284 C 365.699 131.890,365.947 132.324,367.799 131.917 C 369.015 131.650,370.185 129.762,369.537 129.114 C 369.432 129.009,369.236 129.343,369.102 129.856 M363.260 132.917 C 363.107 133.477,362.504 134.125,361.921 134.359 C 360.875 134.778,360.878 134.785,362.118 134.813 C 363.437 134.843,363.996 134.107,363.708 132.719 C 363.564 132.026,363.495 132.057,363.260 132.917 M355.939 136.257 L 354.637 137.557 355.735 137.557 C 357.035 137.557,357.919 136.787,357.919 135.656 C 357.919 134.573,357.497 134.701,355.939 136.257 M348.869 138.165 C 348.869 139.021,347.493 140.151,346.154 140.395 C 345.182 140.572,345.225 140.609,346.461 140.662 C 348.067 140.731,349.321 139.752,349.321 138.429 C 349.321 137.949,349.219 137.557,349.095 137.557 C 348.971 137.557,348.869 137.830,348.869 138.165 M337.003 141.561 C 336.815 142.249,336.517 142.504,336.160 142.283 C 335.822 142.075,335.723 142.130,335.906 142.425 C 336.070 142.691,335.949 143.012,335.636 143.138 C 335.324 143.264,335.532 143.384,336.100 143.403 C 337.209 143.442,337.737 142.634,337.463 141.316 C 337.324 140.641,337.243 140.684,337.003 141.561 M43.170 151.197 C 42.312 152.163,42.313 152.165,43.326 151.634 C 43.886 151.340,44.344 150.903,44.344 150.663 C 44.344 150.020,44.127 150.119,43.170 151.197 " stroke="none" fill="#0000ff" fill-rule="evenodd"></path></g></svg>